# xmcd CD database file
#
# Track frame offsets:
#	150
#	32200
#	53232
#	85220
#
# Disc length: 1412 seconds
#
# Revision: 1
# Processed by: cddbd v1.5.1PL2 Copyright (c) Steve Scherf et al.
# Submitted via: CDex 1.51
#
DISCID=2c058204
DTITLE=Tourbillon - もう一度君に
DYEAR=2005
DGENRE=JPop
TTITLE0=もう一度君に
TTITLE1=FIORENTINA
TTITLE2=もう一度君に -instrumental
TTITLE3=FIORENTINA -instrumental
EXTD=YEAR: 2005
EXTT0=
EXTT1=
EXTT2=
EXTT3=
PLAYORDER=
